<mxfile host="app.diagrams.net" modified="2024-05-21T10:20:11.223Z" agent="Mozilla/5.0 (Windows NT 10.0; Win64; x64; rv:126.0) Gecko/20100101 Firefox/126.0" etag="9VPppuPH1cQc-a1rmGOH" version="24.4.4" type="device">
  <diagram name="Страница — 1" id="scVqTPHX8vk5tw1YjdOx">
    <mxGraphModel dx="1434" dy="1885" grid="1" gridSize="10" guides="1" tooltips="1" connect="1" arrows="1" fold="1" page="1" pageScale="1" pageWidth="827" pageHeight="1169" math="0" shadow="0">
      <root>
        <mxCell id="0" />
        <mxCell id="1" parent="0" />
        <mxCell id="qlcgDjwSeP2GoSXmoH3u-1" value="Начало" style="strokeWidth=2;html=1;shape=mxgraph.flowchart.terminator;whiteSpace=wrap;" parent="1" vertex="1">
          <mxGeometry x="364" y="-110" width="106" height="30" as="geometry" />
        </mxCell>
        <mxCell id="qlcgDjwSeP2GoSXmoH3u-5" style="edgeStyle=orthogonalEdgeStyle;rounded=0;orthogonalLoop=1;jettySize=auto;html=1;exitX=0.5;exitY=1;exitDx=0;exitDy=0;" parent="1" source="qlcgDjwSeP2GoSXmoH3u-2" target="qlcgDjwSeP2GoSXmoH3u-4" edge="1">
          <mxGeometry relative="1" as="geometry" />
        </mxCell>
        <mxCell id="qlcgDjwSeP2GoSXmoH3u-2" value="Ключи" style="shape=manualInput;whiteSpace=wrap;html=1;" parent="1" vertex="1">
          <mxGeometry x="360.5" y="-60" width="113" height="60" as="geometry" />
        </mxCell>
        <mxCell id="qlcgDjwSeP2GoSXmoH3u-3" style="edgeStyle=orthogonalEdgeStyle;rounded=0;orthogonalLoop=1;jettySize=auto;html=1;exitX=0.5;exitY=1;exitDx=0;exitDy=0;exitPerimeter=0;entryX=0.509;entryY=0.267;entryDx=0;entryDy=0;entryPerimeter=0;" parent="1" source="qlcgDjwSeP2GoSXmoH3u-1" target="qlcgDjwSeP2GoSXmoH3u-2" edge="1">
          <mxGeometry relative="1" as="geometry" />
        </mxCell>
        <mxCell id="qlcgDjwSeP2GoSXmoH3u-7" style="edgeStyle=orthogonalEdgeStyle;rounded=0;orthogonalLoop=1;jettySize=auto;html=1;exitX=0.5;exitY=1;exitDx=0;exitDy=0;entryX=0.5;entryY=0;entryDx=0;entryDy=0;" parent="1" source="qlcgDjwSeP2GoSXmoH3u-4" target="qlcgDjwSeP2GoSXmoH3u-6" edge="1">
          <mxGeometry relative="1" as="geometry" />
        </mxCell>
        <mxCell id="qlcgDjwSeP2GoSXmoH3u-12" value="Да" style="edgeLabel;html=1;align=center;verticalAlign=middle;resizable=0;points=[];" parent="qlcgDjwSeP2GoSXmoH3u-7" vertex="1" connectable="0">
          <mxGeometry x="-0.3333" relative="1" as="geometry">
            <mxPoint as="offset" />
          </mxGeometry>
        </mxCell>
        <mxCell id="qlcgDjwSeP2GoSXmoH3u-4" value="Режим зашифрования" style="rhombus;whiteSpace=wrap;html=1;" parent="1" vertex="1">
          <mxGeometry x="337" y="20" width="160" height="80" as="geometry" />
        </mxCell>
        <mxCell id="yQ52yVnwnGg3-klnq6Ig-3" style="edgeStyle=orthogonalEdgeStyle;rounded=0;orthogonalLoop=1;jettySize=auto;html=1;exitX=0.5;exitY=1;exitDx=0;exitDy=0;entryX=0.5;entryY=0;entryDx=0;entryDy=0;" edge="1" parent="1" source="qlcgDjwSeP2GoSXmoH3u-6" target="yQ52yVnwnGg3-klnq6Ig-2">
          <mxGeometry relative="1" as="geometry" />
        </mxCell>
        <mxCell id="qlcgDjwSeP2GoSXmoH3u-6" value="Подготовка текста" style="shape=process;whiteSpace=wrap;html=1;backgroundOutline=1;" parent="1" vertex="1">
          <mxGeometry x="357" y="130" width="120" height="60" as="geometry" />
        </mxCell>
        <mxCell id="qlcgDjwSeP2GoSXmoH3u-11" style="edgeStyle=orthogonalEdgeStyle;rounded=0;orthogonalLoop=1;jettySize=auto;html=1;exitX=0.5;exitY=1;exitDx=0;exitDy=0;entryX=0.5;entryY=0;entryDx=0;entryDy=0;" parent="1" source="qlcgDjwSeP2GoSXmoH3u-8" target="qlcgDjwSeP2GoSXmoH3u-10" edge="1">
          <mxGeometry relative="1" as="geometry" />
        </mxCell>
        <mxCell id="qlcgDjwSeP2GoSXmoH3u-8" value="Представить текст в виде двоичного кода" style="rounded=0;whiteSpace=wrap;html=1;" parent="1" vertex="1">
          <mxGeometry x="357" y="330" width="120" height="60" as="geometry" />
        </mxCell>
        <mxCell id="qlcgDjwSeP2GoSXmoH3u-26" style="edgeStyle=orthogonalEdgeStyle;rounded=0;orthogonalLoop=1;jettySize=auto;html=1;exitX=0.5;exitY=1;exitDx=0;exitDy=0;entryX=0.5;entryY=0;entryDx=0;entryDy=0;" parent="1" source="qlcgDjwSeP2GoSXmoH3u-10" target="qlcgDjwSeP2GoSXmoH3u-15" edge="1">
          <mxGeometry relative="1" as="geometry" />
        </mxCell>
        <mxCell id="qlcgDjwSeP2GoSXmoH3u-10" value="Разбить текст на подстроки по 114 бит" style="rounded=0;whiteSpace=wrap;html=1;" parent="1" vertex="1">
          <mxGeometry x="357" y="410" width="120" height="60" as="geometry" />
        </mxCell>
        <mxCell id="qlcgDjwSeP2GoSXmoH3u-24" style="edgeStyle=orthogonalEdgeStyle;rounded=0;orthogonalLoop=1;jettySize=auto;html=1;exitX=0;exitY=0.5;exitDx=0;exitDy=0;entryX=1;entryY=0.5;entryDx=0;entryDy=0;" parent="1" source="qlcgDjwSeP2GoSXmoH3u-15" target="qlcgDjwSeP2GoSXmoH3u-16" edge="1">
          <mxGeometry relative="1" as="geometry" />
        </mxCell>
        <mxCell id="qlcgDjwSeP2GoSXmoH3u-25" value="Нет" style="edgeLabel;html=1;align=center;verticalAlign=middle;resizable=0;points=[];" parent="qlcgDjwSeP2GoSXmoH3u-24" vertex="1" connectable="0">
          <mxGeometry x="-0.1532" y="-1" relative="1" as="geometry">
            <mxPoint as="offset" />
          </mxGeometry>
        </mxCell>
        <mxCell id="qlcgDjwSeP2GoSXmoH3u-28" style="edgeStyle=orthogonalEdgeStyle;rounded=0;orthogonalLoop=1;jettySize=auto;html=1;exitX=0.5;exitY=1;exitDx=0;exitDy=0;entryX=0.5;entryY=0;entryDx=0;entryDy=0;" parent="1" source="qlcgDjwSeP2GoSXmoH3u-15" target="qlcgDjwSeP2GoSXmoH3u-27" edge="1">
          <mxGeometry relative="1" as="geometry" />
        </mxCell>
        <mxCell id="qlcgDjwSeP2GoSXmoH3u-29" value="Да" style="edgeLabel;html=1;align=center;verticalAlign=middle;resizable=0;points=[];" parent="qlcgDjwSeP2GoSXmoH3u-28" vertex="1" connectable="0">
          <mxGeometry x="-0.3333" y="-1" relative="1" as="geometry">
            <mxPoint as="offset" />
          </mxGeometry>
        </mxCell>
        <mxCell id="qlcgDjwSeP2GoSXmoH3u-15" value="Индекс подстроки сушествует" style="rhombus;whiteSpace=wrap;html=1;" parent="1" vertex="1">
          <mxGeometry x="355.5" y="490" width="123" height="80" as="geometry" />
        </mxCell>
        <mxCell id="qlcgDjwSeP2GoSXmoH3u-21" style="edgeStyle=orthogonalEdgeStyle;rounded=0;orthogonalLoop=1;jettySize=auto;html=1;exitX=0.5;exitY=1;exitDx=0;exitDy=0;entryX=0.5;entryY=0;entryDx=0;entryDy=0;" parent="1" source="qlcgDjwSeP2GoSXmoH3u-16" target="qlcgDjwSeP2GoSXmoH3u-20" edge="1">
          <mxGeometry relative="1" as="geometry" />
        </mxCell>
        <mxCell id="qlcgDjwSeP2GoSXmoH3u-22" value="Нет" style="edgeLabel;html=1;align=center;verticalAlign=middle;resizable=0;points=[];" parent="qlcgDjwSeP2GoSXmoH3u-21" vertex="1" connectable="0">
          <mxGeometry x="-0.2667" y="1" relative="1" as="geometry">
            <mxPoint as="offset" />
          </mxGeometry>
        </mxCell>
        <mxCell id="qlcgDjwSeP2GoSXmoH3u-16" value="Режим зашифрования" style="rhombus;whiteSpace=wrap;html=1;" parent="1" vertex="1">
          <mxGeometry x="160" y="490" width="140" height="80" as="geometry" />
        </mxCell>
        <mxCell id="qlcgDjwSeP2GoSXmoH3u-17" value="Вернуть результат" style="strokeWidth=2;html=1;shape=mxgraph.flowchart.terminator;whiteSpace=wrap;" parent="1" vertex="1">
          <mxGeometry x="190" y="430" width="80" height="30" as="geometry" />
        </mxCell>
        <mxCell id="qlcgDjwSeP2GoSXmoH3u-18" style="edgeStyle=orthogonalEdgeStyle;rounded=0;orthogonalLoop=1;jettySize=auto;html=1;exitX=0.5;exitY=0;exitDx=0;exitDy=0;entryX=0.5;entryY=1;entryDx=0;entryDy=0;entryPerimeter=0;" parent="1" source="qlcgDjwSeP2GoSXmoH3u-16" target="qlcgDjwSeP2GoSXmoH3u-17" edge="1">
          <mxGeometry relative="1" as="geometry" />
        </mxCell>
        <mxCell id="qlcgDjwSeP2GoSXmoH3u-19" value="Да" style="edgeLabel;html=1;align=center;verticalAlign=middle;resizable=0;points=[];" parent="qlcgDjwSeP2GoSXmoH3u-18" vertex="1" connectable="0">
          <mxGeometry x="-0.2" y="1" relative="1" as="geometry">
            <mxPoint as="offset" />
          </mxGeometry>
        </mxCell>
        <mxCell id="qlcgDjwSeP2GoSXmoH3u-20" value="Заменить словестное представление знаков на их символьное представление" style="rounded=0;whiteSpace=wrap;html=1;" parent="1" vertex="1">
          <mxGeometry x="170" y="600" width="120" height="90" as="geometry" />
        </mxCell>
        <mxCell id="qlcgDjwSeP2GoSXmoH3u-23" style="edgeStyle=orthogonalEdgeStyle;rounded=0;orthogonalLoop=1;jettySize=auto;html=1;exitX=0;exitY=0.5;exitDx=0;exitDy=0;entryX=0;entryY=0.5;entryDx=0;entryDy=0;entryPerimeter=0;" parent="1" source="qlcgDjwSeP2GoSXmoH3u-20" target="qlcgDjwSeP2GoSXmoH3u-17" edge="1">
          <mxGeometry relative="1" as="geometry" />
        </mxCell>
        <mxCell id="qlcgDjwSeP2GoSXmoH3u-91" style="edgeStyle=orthogonalEdgeStyle;rounded=0;orthogonalLoop=1;jettySize=auto;html=1;exitX=0.5;exitY=1;exitDx=0;exitDy=0;" parent="1" source="qlcgDjwSeP2GoSXmoH3u-27" target="qlcgDjwSeP2GoSXmoH3u-31" edge="1">
          <mxGeometry relative="1" as="geometry" />
        </mxCell>
        <mxCell id="qlcgDjwSeP2GoSXmoH3u-27" value="Конкатенация ключа с 22 битным номером пакета" style="rounded=0;whiteSpace=wrap;html=1;" parent="1" vertex="1">
          <mxGeometry x="340.5" y="600" width="153" height="40" as="geometry" />
        </mxCell>
        <mxCell id="yQ52yVnwnGg3-klnq6Ig-5" style="edgeStyle=orthogonalEdgeStyle;rounded=0;orthogonalLoop=1;jettySize=auto;html=1;exitX=1;exitY=0.5;exitDx=0;exitDy=0;entryX=1;entryY=0.5;entryDx=0;entryDy=0;" edge="1" parent="1">
          <mxGeometry relative="1" as="geometry">
            <mxPoint x="470" y="440" as="sourcePoint" />
            <mxPoint x="491.5" y="60" as="targetPoint" />
            <Array as="points">
              <mxPoint x="560" y="440" />
              <mxPoint x="560" y="60" />
            </Array>
          </mxGeometry>
        </mxCell>
        <mxCell id="qlcgDjwSeP2GoSXmoH3u-30" value="Разбить текст на подстроки по 114 бит" style="rounded=0;whiteSpace=wrap;html=1;" parent="1" vertex="1">
          <mxGeometry x="355.5" y="410" width="120" height="60" as="geometry" />
        </mxCell>
        <mxCell id="qlcgDjwSeP2GoSXmoH3u-92" style="edgeStyle=orthogonalEdgeStyle;rounded=0;orthogonalLoop=1;jettySize=auto;html=1;exitX=0.5;exitY=1;exitDx=0;exitDy=0;entryX=0.5;entryY=0;entryDx=0;entryDy=0;" parent="1" source="qlcgDjwSeP2GoSXmoH3u-31" target="qlcgDjwSeP2GoSXmoH3u-32" edge="1">
          <mxGeometry relative="1" as="geometry" />
        </mxCell>
        <mxCell id="qlcgDjwSeP2GoSXmoH3u-31" value="Обнуление регистров" style="rounded=0;whiteSpace=wrap;html=1;" parent="1" vertex="1">
          <mxGeometry x="340.5" y="660" width="153" height="40" as="geometry" />
        </mxCell>
        <mxCell id="qlcgDjwSeP2GoSXmoH3u-48" style="edgeStyle=orthogonalEdgeStyle;rounded=0;orthogonalLoop=1;jettySize=auto;html=1;exitX=1;exitY=0.5;exitDx=0;exitDy=0;entryX=0;entryY=0.5;entryDx=0;entryDy=0;" parent="1" source="qlcgDjwSeP2GoSXmoH3u-32" target="qlcgDjwSeP2GoSXmoH3u-47" edge="1">
          <mxGeometry relative="1" as="geometry" />
        </mxCell>
        <mxCell id="qlcgDjwSeP2GoSXmoH3u-49" value="Нет" style="edgeLabel;html=1;align=center;verticalAlign=middle;resizable=0;points=[];" parent="qlcgDjwSeP2GoSXmoH3u-48" vertex="1" connectable="0">
          <mxGeometry x="-0.1579" y="2" relative="1" as="geometry">
            <mxPoint as="offset" />
          </mxGeometry>
        </mxCell>
        <mxCell id="yQ52yVnwnGg3-klnq6Ig-6" style="edgeStyle=orthogonalEdgeStyle;rounded=0;orthogonalLoop=1;jettySize=auto;html=1;exitX=0.5;exitY=1;exitDx=0;exitDy=0;entryX=1;entryY=0.5;entryDx=0;entryDy=0;" edge="1" parent="1" source="qlcgDjwSeP2GoSXmoH3u-32" target="qlcgDjwSeP2GoSXmoH3u-33">
          <mxGeometry relative="1" as="geometry" />
        </mxCell>
        <mxCell id="yQ52yVnwnGg3-klnq6Ig-7" value="Да" style="edgeLabel;html=1;align=center;verticalAlign=middle;resizable=0;points=[];" vertex="1" connectable="0" parent="yQ52yVnwnGg3-klnq6Ig-6">
          <mxGeometry x="-0.533" y="-1" relative="1" as="geometry">
            <mxPoint as="offset" />
          </mxGeometry>
        </mxCell>
        <mxCell id="qlcgDjwSeP2GoSXmoH3u-32" value="64 такта" style="rhombus;whiteSpace=wrap;html=1;" parent="1" vertex="1">
          <mxGeometry x="337" y="720" width="160" height="80" as="geometry" />
        </mxCell>
        <mxCell id="yQ52yVnwnGg3-klnq6Ig-8" style="edgeStyle=orthogonalEdgeStyle;rounded=0;orthogonalLoop=1;jettySize=auto;html=1;exitX=0.5;exitY=1;exitDx=0;exitDy=0;entryX=0.5;entryY=0;entryDx=0;entryDy=0;" edge="1" parent="1" source="qlcgDjwSeP2GoSXmoH3u-33" target="qlcgDjwSeP2GoSXmoH3u-35">
          <mxGeometry relative="1" as="geometry" />
        </mxCell>
        <mxCell id="qlcgDjwSeP2GoSXmoH3u-33" value="xor соответствующего бита ключа и младшего бита регистра R1" style="rounded=0;whiteSpace=wrap;html=1;" parent="1" vertex="1">
          <mxGeometry x="150" y="740" width="140" height="60" as="geometry" />
        </mxCell>
        <mxCell id="yQ52yVnwnGg3-klnq6Ig-9" style="edgeStyle=orthogonalEdgeStyle;rounded=0;orthogonalLoop=1;jettySize=auto;html=1;exitX=1;exitY=0.5;exitDx=0;exitDy=0;entryX=0;entryY=0.5;entryDx=0;entryDy=0;" edge="1" parent="1" source="qlcgDjwSeP2GoSXmoH3u-35" target="qlcgDjwSeP2GoSXmoH3u-36">
          <mxGeometry relative="1" as="geometry" />
        </mxCell>
        <mxCell id="qlcgDjwSeP2GoSXmoH3u-35" value="&lt;br&gt;&lt;span style=&quot;color: rgb(240, 240, 240); font-family: Helvetica; font-size: 12px; font-style: normal; font-variant-ligatures: normal; font-variant-caps: normal; font-weight: 400; letter-spacing: normal; orphans: 2; text-align: center; text-indent: 0px; text-transform: none; widows: 2; word-spacing: 0px; -webkit-text-stroke-width: 0px; white-space: normal; background-color: rgb(27, 29, 30); text-decoration-thickness: initial; text-decoration-style: initial; text-decoration-color: initial; display: inline !important; float: none;&quot;&gt;xor соответствующего бита ключа и младшего бита регистра R2&lt;/span&gt;&lt;div&gt;&lt;br/&gt;&lt;/div&gt;" style="rounded=0;whiteSpace=wrap;html=1;" parent="1" vertex="1">
          <mxGeometry x="150" y="840" width="140" height="60" as="geometry" />
        </mxCell>
        <mxCell id="yQ52yVnwnGg3-klnq6Ig-10" style="edgeStyle=orthogonalEdgeStyle;rounded=0;orthogonalLoop=1;jettySize=auto;html=1;exitX=0.5;exitY=1;exitDx=0;exitDy=0;entryX=0;entryY=0.5;entryDx=0;entryDy=0;" edge="1" parent="1" source="qlcgDjwSeP2GoSXmoH3u-36" target="qlcgDjwSeP2GoSXmoH3u-32">
          <mxGeometry relative="1" as="geometry">
            <Array as="points">
              <mxPoint x="417" y="920" />
              <mxPoint x="120" y="920" />
              <mxPoint x="120" y="720" />
              <mxPoint x="310" y="720" />
              <mxPoint x="310" y="760" />
            </Array>
          </mxGeometry>
        </mxCell>
        <mxCell id="qlcgDjwSeP2GoSXmoH3u-36" value="xor соответствующего бита ключа и младшего бита регистра R3" style="rounded=0;whiteSpace=wrap;html=1;" parent="1" vertex="1">
          <mxGeometry x="348.5" y="840" width="137" height="60" as="geometry" />
        </mxCell>
        <mxCell id="qlcgDjwSeP2GoSXmoH3u-69" style="edgeStyle=orthogonalEdgeStyle;rounded=0;orthogonalLoop=1;jettySize=auto;html=1;exitX=0.5;exitY=1;exitDx=0;exitDy=0;entryX=0.5;entryY=0;entryDx=0;entryDy=0;" parent="1" source="qlcgDjwSeP2GoSXmoH3u-47" target="qlcgDjwSeP2GoSXmoH3u-61" edge="1">
          <mxGeometry relative="1" as="geometry">
            <Array as="points">
              <mxPoint x="710" y="930" />
              <mxPoint x="420" y="930" />
            </Array>
          </mxGeometry>
        </mxCell>
        <mxCell id="qlcgDjwSeP2GoSXmoH3u-70" value="Нет" style="edgeLabel;html=1;align=center;verticalAlign=middle;resizable=0;points=[];" parent="qlcgDjwSeP2GoSXmoH3u-69" vertex="1" connectable="0">
          <mxGeometry x="-0.8375" relative="1" as="geometry">
            <mxPoint as="offset" />
          </mxGeometry>
        </mxCell>
        <mxCell id="yQ52yVnwnGg3-klnq6Ig-11" style="edgeStyle=orthogonalEdgeStyle;rounded=0;orthogonalLoop=1;jettySize=auto;html=1;exitX=1;exitY=0.5;exitDx=0;exitDy=0;entryX=0;entryY=0.5;entryDx=0;entryDy=0;" edge="1" parent="1" source="qlcgDjwSeP2GoSXmoH3u-47" target="qlcgDjwSeP2GoSXmoH3u-50">
          <mxGeometry relative="1" as="geometry">
            <Array as="points">
              <mxPoint x="807" y="760" />
              <mxPoint x="807" y="880" />
            </Array>
          </mxGeometry>
        </mxCell>
        <mxCell id="yQ52yVnwnGg3-klnq6Ig-12" value="Да" style="edgeLabel;html=1;align=center;verticalAlign=middle;resizable=0;points=[];" vertex="1" connectable="0" parent="yQ52yVnwnGg3-klnq6Ig-11">
          <mxGeometry x="-0.5796" y="-4" relative="1" as="geometry">
            <mxPoint as="offset" />
          </mxGeometry>
        </mxCell>
        <mxCell id="qlcgDjwSeP2GoSXmoH3u-47" value="22 такта" style="rhombus;whiteSpace=wrap;html=1;" parent="1" vertex="1">
          <mxGeometry x="630" y="720" width="160" height="80" as="geometry" />
        </mxCell>
        <mxCell id="yQ52yVnwnGg3-klnq6Ig-13" style="edgeStyle=orthogonalEdgeStyle;rounded=0;orthogonalLoop=1;jettySize=auto;html=1;exitX=0.5;exitY=0;exitDx=0;exitDy=0;" edge="1" parent="1" source="qlcgDjwSeP2GoSXmoH3u-50" target="qlcgDjwSeP2GoSXmoH3u-51">
          <mxGeometry relative="1" as="geometry" />
        </mxCell>
        <mxCell id="qlcgDjwSeP2GoSXmoH3u-50" value="xor соответствующего бита ключа и младшего бита регистра R1" style="rounded=0;whiteSpace=wrap;html=1;" parent="1" vertex="1">
          <mxGeometry x="827" y="850" width="140" height="60" as="geometry" />
        </mxCell>
        <mxCell id="yQ52yVnwnGg3-klnq6Ig-14" style="edgeStyle=orthogonalEdgeStyle;rounded=0;orthogonalLoop=1;jettySize=auto;html=1;exitX=0.5;exitY=0;exitDx=0;exitDy=0;entryX=0.5;entryY=1;entryDx=0;entryDy=0;" edge="1" parent="1" source="qlcgDjwSeP2GoSXmoH3u-51" target="qlcgDjwSeP2GoSXmoH3u-52">
          <mxGeometry relative="1" as="geometry" />
        </mxCell>
        <mxCell id="qlcgDjwSeP2GoSXmoH3u-51" value="&lt;br&gt;&lt;span style=&quot;color: rgb(240, 240, 240); font-family: Helvetica; font-size: 12px; font-style: normal; font-variant-ligatures: normal; font-variant-caps: normal; font-weight: 400; letter-spacing: normal; orphans: 2; text-align: center; text-indent: 0px; text-transform: none; widows: 2; word-spacing: 0px; -webkit-text-stroke-width: 0px; white-space: normal; background-color: rgb(27, 29, 30); text-decoration-thickness: initial; text-decoration-style: initial; text-decoration-color: initial; display: inline !important; float: none;&quot;&gt;xor соответствующего бита ключа и младшего бита регистра R2&lt;/span&gt;&lt;div&gt;&lt;br/&gt;&lt;/div&gt;" style="rounded=0;whiteSpace=wrap;html=1;" parent="1" vertex="1">
          <mxGeometry x="827" y="730" width="140" height="60" as="geometry" />
        </mxCell>
        <mxCell id="yQ52yVnwnGg3-klnq6Ig-15" style="edgeStyle=orthogonalEdgeStyle;rounded=0;orthogonalLoop=1;jettySize=auto;html=1;exitX=0;exitY=0.5;exitDx=0;exitDy=0;entryX=0.5;entryY=0;entryDx=0;entryDy=0;" edge="1" parent="1" source="qlcgDjwSeP2GoSXmoH3u-52" target="qlcgDjwSeP2GoSXmoH3u-47">
          <mxGeometry relative="1" as="geometry" />
        </mxCell>
        <mxCell id="qlcgDjwSeP2GoSXmoH3u-52" value="xor соответствующего бита ключа и младшего бита регистра R3" style="rounded=0;whiteSpace=wrap;html=1;" parent="1" vertex="1">
          <mxGeometry x="827" y="615" width="137" height="60" as="geometry" />
        </mxCell>
        <mxCell id="qlcgDjwSeP2GoSXmoH3u-75" style="edgeStyle=orthogonalEdgeStyle;rounded=0;orthogonalLoop=1;jettySize=auto;html=1;exitX=1;exitY=0.5;exitDx=0;exitDy=0;entryX=0.5;entryY=0;entryDx=0;entryDy=0;" parent="1" source="qlcgDjwSeP2GoSXmoH3u-61" target="qlcgDjwSeP2GoSXmoH3u-74" edge="1">
          <mxGeometry relative="1" as="geometry">
            <Array as="points">
              <mxPoint x="550" y="990" />
              <mxPoint x="550" y="940" />
              <mxPoint x="896" y="940" />
            </Array>
          </mxGeometry>
        </mxCell>
        <mxCell id="qlcgDjwSeP2GoSXmoH3u-76" value="Нет" style="edgeLabel;html=1;align=center;verticalAlign=middle;resizable=0;points=[];" parent="qlcgDjwSeP2GoSXmoH3u-75" vertex="1" connectable="0">
          <mxGeometry x="-0.8415" y="2" relative="1" as="geometry">
            <mxPoint as="offset" />
          </mxGeometry>
        </mxCell>
        <mxCell id="yQ52yVnwnGg3-klnq6Ig-16" style="edgeStyle=orthogonalEdgeStyle;rounded=0;orthogonalLoop=1;jettySize=auto;html=1;exitX=0.5;exitY=1;exitDx=0;exitDy=0;entryX=0.5;entryY=0;entryDx=0;entryDy=0;" edge="1" parent="1" source="qlcgDjwSeP2GoSXmoH3u-61" target="qlcgDjwSeP2GoSXmoH3u-62">
          <mxGeometry relative="1" as="geometry" />
        </mxCell>
        <mxCell id="yQ52yVnwnGg3-klnq6Ig-17" value="Да" style="edgeLabel;html=1;align=center;verticalAlign=middle;resizable=0;points=[];" vertex="1" connectable="0" parent="yQ52yVnwnGg3-klnq6Ig-16">
          <mxGeometry x="-0.5368" y="-1" relative="1" as="geometry">
            <mxPoint as="offset" />
          </mxGeometry>
        </mxCell>
        <mxCell id="qlcgDjwSeP2GoSXmoH3u-61" value="100 такта" style="rhombus;whiteSpace=wrap;html=1;" parent="1" vertex="1">
          <mxGeometry x="340" y="950" width="160" height="80" as="geometry" />
        </mxCell>
        <mxCell id="yQ52yVnwnGg3-klnq6Ig-18" style="edgeStyle=orthogonalEdgeStyle;rounded=0;orthogonalLoop=1;jettySize=auto;html=1;exitX=1;exitY=0.5;exitDx=0;exitDy=0;entryX=0;entryY=0.5;entryDx=0;entryDy=0;" edge="1" parent="1" source="qlcgDjwSeP2GoSXmoH3u-62" target="qlcgDjwSeP2GoSXmoH3u-63">
          <mxGeometry relative="1" as="geometry" />
        </mxCell>
        <mxCell id="qlcgDjwSeP2GoSXmoH3u-62" value="Тактирование R1 с управлением сдвига, но без генерации последовательности" style="rounded=0;whiteSpace=wrap;html=1;" parent="1" vertex="1">
          <mxGeometry x="200" y="1070" width="140" height="60" as="geometry" />
        </mxCell>
        <mxCell id="yQ52yVnwnGg3-klnq6Ig-19" style="edgeStyle=orthogonalEdgeStyle;rounded=0;orthogonalLoop=1;jettySize=auto;html=1;exitX=1;exitY=0.5;exitDx=0;exitDy=0;" edge="1" parent="1" source="qlcgDjwSeP2GoSXmoH3u-63" target="qlcgDjwSeP2GoSXmoH3u-64">
          <mxGeometry relative="1" as="geometry" />
        </mxCell>
        <mxCell id="qlcgDjwSeP2GoSXmoH3u-63" value="Тактирование R2 с управлением сдвига, но без генерации последовательности" style="rounded=0;whiteSpace=wrap;html=1;" parent="1" vertex="1">
          <mxGeometry x="350" y="1070" width="140" height="60" as="geometry" />
        </mxCell>
        <mxCell id="yQ52yVnwnGg3-klnq6Ig-20" style="edgeStyle=orthogonalEdgeStyle;rounded=0;orthogonalLoop=1;jettySize=auto;html=1;exitX=0.5;exitY=1;exitDx=0;exitDy=0;entryX=0;entryY=0.5;entryDx=0;entryDy=0;" edge="1" parent="1" source="qlcgDjwSeP2GoSXmoH3u-64" target="qlcgDjwSeP2GoSXmoH3u-61">
          <mxGeometry relative="1" as="geometry">
            <Array as="points">
              <mxPoint x="570" y="1150" />
              <mxPoint x="180" y="1150" />
              <mxPoint x="180" y="990" />
            </Array>
          </mxGeometry>
        </mxCell>
        <mxCell id="qlcgDjwSeP2GoSXmoH3u-64" value="Тактирование R3 с управлением сдвига, но без генерации последовательности" style="rounded=0;whiteSpace=wrap;html=1;" parent="1" vertex="1">
          <mxGeometry x="500" y="1070" width="140" height="60" as="geometry" />
        </mxCell>
        <mxCell id="qlcgDjwSeP2GoSXmoH3u-89" style="edgeStyle=orthogonalEdgeStyle;rounded=0;orthogonalLoop=1;jettySize=auto;html=1;exitX=1;exitY=0.5;exitDx=0;exitDy=0;entryX=1;entryY=0.5;entryDx=0;entryDy=0;" parent="1" source="qlcgDjwSeP2GoSXmoH3u-74" target="qlcgDjwSeP2GoSXmoH3u-15" edge="1">
          <mxGeometry relative="1" as="geometry" />
        </mxCell>
        <mxCell id="qlcgDjwSeP2GoSXmoH3u-90" value="Нет" style="edgeLabel;html=1;align=center;verticalAlign=middle;resizable=0;points=[];" parent="qlcgDjwSeP2GoSXmoH3u-89" vertex="1" connectable="0">
          <mxGeometry x="0.9589" relative="1" as="geometry">
            <mxPoint x="1" as="offset" />
          </mxGeometry>
        </mxCell>
        <mxCell id="yQ52yVnwnGg3-klnq6Ig-21" style="edgeStyle=orthogonalEdgeStyle;rounded=0;orthogonalLoop=1;jettySize=auto;html=1;exitX=0.5;exitY=1;exitDx=0;exitDy=0;entryX=0.5;entryY=0;entryDx=0;entryDy=0;" edge="1" parent="1" source="qlcgDjwSeP2GoSXmoH3u-74" target="qlcgDjwSeP2GoSXmoH3u-77">
          <mxGeometry relative="1" as="geometry" />
        </mxCell>
        <mxCell id="yQ52yVnwnGg3-klnq6Ig-22" value="Да" style="edgeLabel;html=1;align=center;verticalAlign=middle;resizable=0;points=[];" vertex="1" connectable="0" parent="yQ52yVnwnGg3-klnq6Ig-21">
          <mxGeometry x="-0.5632" relative="1" as="geometry">
            <mxPoint as="offset" />
          </mxGeometry>
        </mxCell>
        <mxCell id="qlcgDjwSeP2GoSXmoH3u-74" value="114 такта" style="rhombus;whiteSpace=wrap;html=1;" parent="1" vertex="1">
          <mxGeometry x="815.5" y="950" width="160" height="80" as="geometry" />
        </mxCell>
        <mxCell id="yQ52yVnwnGg3-klnq6Ig-23" style="edgeStyle=orthogonalEdgeStyle;rounded=0;orthogonalLoop=1;jettySize=auto;html=1;exitX=1;exitY=0.5;exitDx=0;exitDy=0;entryX=0;entryY=0.5;entryDx=0;entryDy=0;" edge="1" parent="1" source="qlcgDjwSeP2GoSXmoH3u-77" target="qlcgDjwSeP2GoSXmoH3u-78">
          <mxGeometry relative="1" as="geometry" />
        </mxCell>
        <mxCell id="qlcgDjwSeP2GoSXmoH3u-77" value="Тактирование R1 с управлением сдвига и генерацией последовательности" style="rounded=0;whiteSpace=wrap;html=1;" parent="1" vertex="1">
          <mxGeometry x="675.5" y="1070" width="140" height="60" as="geometry" />
        </mxCell>
        <mxCell id="yQ52yVnwnGg3-klnq6Ig-24" style="edgeStyle=orthogonalEdgeStyle;rounded=0;orthogonalLoop=1;jettySize=auto;html=1;exitX=1;exitY=0.5;exitDx=0;exitDy=0;entryX=0;entryY=0.5;entryDx=0;entryDy=0;" edge="1" parent="1" source="qlcgDjwSeP2GoSXmoH3u-78" target="qlcgDjwSeP2GoSXmoH3u-79">
          <mxGeometry relative="1" as="geometry" />
        </mxCell>
        <mxCell id="qlcgDjwSeP2GoSXmoH3u-78" value="Тактирование R2 с управлением сдвига и генерацией последовательности" style="rounded=0;whiteSpace=wrap;html=1;" parent="1" vertex="1">
          <mxGeometry x="825.5" y="1070" width="140" height="60" as="geometry" />
        </mxCell>
        <mxCell id="yQ52yVnwnGg3-klnq6Ig-25" style="edgeStyle=orthogonalEdgeStyle;rounded=0;orthogonalLoop=1;jettySize=auto;html=1;exitX=0.5;exitY=1;exitDx=0;exitDy=0;entryX=0.5;entryY=0;entryDx=0;entryDy=0;" edge="1" parent="1" source="qlcgDjwSeP2GoSXmoH3u-79" target="qlcgDjwSeP2GoSXmoH3u-84">
          <mxGeometry relative="1" as="geometry">
            <Array as="points">
              <mxPoint x="1046" y="1140" />
              <mxPoint x="897" y="1140" />
            </Array>
          </mxGeometry>
        </mxCell>
        <mxCell id="qlcgDjwSeP2GoSXmoH3u-79" value="Тактирование R3 с управлением сдвига и генерацией последовательности" style="rounded=0;whiteSpace=wrap;html=1;" parent="1" vertex="1">
          <mxGeometry x="975.5" y="1070" width="140" height="60" as="geometry" />
        </mxCell>
        <mxCell id="qlcgDjwSeP2GoSXmoH3u-88" style="edgeStyle=orthogonalEdgeStyle;rounded=0;orthogonalLoop=1;jettySize=auto;html=1;exitX=0.5;exitY=1;exitDx=0;exitDy=0;entryX=0;entryY=0.5;entryDx=0;entryDy=0;" parent="1" source="qlcgDjwSeP2GoSXmoH3u-84" target="qlcgDjwSeP2GoSXmoH3u-74" edge="1">
          <mxGeometry relative="1" as="geometry">
            <Array as="points">
              <mxPoint x="897" y="1270" />
              <mxPoint x="660" y="1270" />
              <mxPoint x="660" y="990" />
            </Array>
          </mxGeometry>
        </mxCell>
        <mxCell id="qlcgDjwSeP2GoSXmoH3u-84" value="xor старших R1, R2, R3 и соответствующего бита оцифрованного текста и добавление в результат" style="rounded=0;whiteSpace=wrap;html=1;" parent="1" vertex="1">
          <mxGeometry x="837" y="1160" width="120" height="90" as="geometry" />
        </mxCell>
        <mxCell id="yQ52yVnwnGg3-klnq6Ig-4" style="edgeStyle=orthogonalEdgeStyle;rounded=0;orthogonalLoop=1;jettySize=auto;html=1;exitX=0.5;exitY=1;exitDx=0;exitDy=0;entryX=0.5;entryY=0;entryDx=0;entryDy=0;" edge="1" parent="1" source="yQ52yVnwnGg3-klnq6Ig-2" target="qlcgDjwSeP2GoSXmoH3u-8">
          <mxGeometry relative="1" as="geometry" />
        </mxCell>
        <mxCell id="yQ52yVnwnGg3-klnq6Ig-2" value="Проверка ключа" style="shape=process;whiteSpace=wrap;html=1;backgroundOutline=1;" vertex="1" parent="1">
          <mxGeometry x="357" y="230" width="120" height="60" as="geometry" />
        </mxCell>
      </root>
    </mxGraphModel>
  </diagram>
</mxfile>
